<svg width="45" height="45" viewBox="0 0 45 45" fill="none" xmlns="http://www.w3.org/2000/svg">
<g clip-path="url(#clip0_416_6786)">
<path d="M13.0969 13.6321C12.819 13.9112 12.663 14.289 12.663 14.6828C12.663 15.0767 12.819 15.4544 13.0969 15.7335L18.061 20.6976H0C0.402004 15.4091 2.68496 10.4395 6.43529 6.68919C10.1856 2.93887 15.1552 0.65591 20.4437 0.253906V18.3066L15.4796 13.3425C15.2005 13.0646 14.8228 12.9086 14.4289 12.9086C14.0351 12.9086 13.6573 13.0646 13.3782 13.3425L13.0969 13.6321Z" fill="#00BFB2"/>
<path d="M31.1496 15.7335C31.4274 15.4544 31.5834 15.0767 31.5834 14.6828C31.5834 14.289 31.4274 13.9112 31.1496 13.6321L30.8683 13.3508C30.5892 13.0729 30.2114 12.9169 29.8175 12.9169C29.4237 12.9169 29.0459 13.0729 28.7668 13.3508L23.8027 18.3149V0.253906C29.0906 0.657567 34.0593 2.94107 37.8093 6.69106C41.5593 10.4411 43.8428 15.4097 44.2464 20.6976H26.1855L31.1496 15.7335Z" fill="#00BFB2"/>
<path d="M20.4438 26.4472V44.5082C15.1567 44.1043 10.1891 41.8205 6.44048 38.0703C2.69185 34.3202 0.410052 29.3516 0.00830078 24.0645H18.061L13.0969 29.0285C12.819 29.3076 12.663 29.6854 12.663 30.0792C12.663 30.4731 12.819 30.8509 13.0969 31.13L13.3782 31.4113C13.5153 31.5509 13.6788 31.6617 13.8592 31.7374C14.0396 31.8131 14.2333 31.8521 14.429 31.8521C14.6246 31.8521 14.8183 31.8131 14.9987 31.7374C15.1791 31.6617 15.3426 31.5509 15.4797 31.4113L20.4438 26.4472Z" fill="#00BFB2"/>
<path d="M44.2547 24.0645C43.8511 29.3524 41.5676 34.321 37.8176 38.071C34.0676 41.821 29.0989 44.1045 23.811 44.5082V26.4472L28.7751 31.4113C28.9122 31.5509 29.0757 31.6617 29.2561 31.7374C29.4365 31.8131 29.6302 31.8521 29.8258 31.8521C30.0215 31.8521 30.2152 31.8131 30.3956 31.7374C30.576 31.6617 30.7395 31.5509 30.8766 31.4113L31.1579 31.13C31.4357 30.8509 31.5917 30.4731 31.5917 30.0792C31.5917 29.6854 31.4357 29.3076 31.1579 29.0285L26.1938 24.0645H44.2547Z" fill="#00BFB2"/>
</g>
<defs>
<clipPath id="clip0_416_6786">
<rect width="44.2547" height="44.2547" fill="white" transform="translate(0 0.253906)"/>
</clipPath>
</defs>
</svg>
