<svg width="208" height="45" viewBox="0 0 208 45" fill="none" xmlns="http://www.w3.org/2000/svg">
<g clip-path="url(#clip0_416_6777)">
<path d="M13.0969 13.3782C12.819 13.6573 12.663 14.0351 12.663 14.4289C12.663 14.8228 12.819 15.2005 13.0969 15.4796L18.061 20.4437H0C0.402004 15.1552 2.68496 10.1856 6.43529 6.43529C10.1856 2.68496 15.1552 0.402004 20.4437 0V18.0527L15.4796 13.0886C15.2005 12.8107 14.8228 12.6547 14.4289 12.6547C14.0351 12.6547 13.6573 12.8107 13.3782 13.0886L13.0969 13.3782Z" fill="#00BFB2"/>
<path d="M31.1496 15.4796C31.4274 15.2005 31.5834 14.8228 31.5834 14.4289C31.5834 14.0351 31.4274 13.6573 31.1496 13.3782L30.8683 13.0969C30.5892 12.819 30.2114 12.663 29.8175 12.663C29.4237 12.663 29.0459 12.819 28.7668 13.0969L23.8027 18.061V0C29.0906 0.40366 34.0593 2.68716 37.8093 6.43715C41.5593 10.1871 43.8428 15.1558 44.2464 20.4437H26.1855L31.1496 15.4796Z" fill="#00BFB2"/>
<path d="M20.4438 26.1933V44.2543C15.1567 43.8504 10.1891 41.5666 6.44048 37.8164C2.69185 34.0663 0.410052 29.0977 0.00830078 23.8105H18.061L13.0969 28.7746C12.819 29.0537 12.663 29.4315 12.663 29.8253C12.663 30.2192 12.819 30.597 13.0969 30.8761L13.3782 31.1574C13.5153 31.297 13.6788 31.4078 13.8592 31.4835C14.0396 31.5592 14.2333 31.5982 14.429 31.5982C14.6246 31.5982 14.8183 31.5592 14.9987 31.4835C15.1791 31.4078 15.3426 31.297 15.4797 31.1574L20.4438 26.1933Z" fill="#00BFB2"/>
<path d="M44.2547 23.8105C43.8511 29.0985 41.5676 34.0671 37.8176 37.8171C34.0676 41.5671 29.0989 43.8506 23.811 44.2543V26.1933L28.7751 31.1574C28.9122 31.297 29.0757 31.4078 29.2561 31.4835C29.4365 31.5592 29.6302 31.5982 29.8258 31.5982C30.0215 31.5982 30.2152 31.5592 30.3956 31.4835C30.576 31.4078 30.7395 31.297 30.8766 31.1574L31.1579 30.8761C31.4357 30.597 31.5917 30.2192 31.5917 29.8253C31.5917 29.4315 31.4357 29.0537 31.1579 28.7746L26.1938 23.8105H44.2547Z" fill="#00BFB2"/>
</g>
<path d="M56.2015 31.627V11.8914H69.0373V14.8884H59.7766V20.2463H68.3723V23.2432H59.7766V28.63H69.1144V31.627H56.2015ZM84.6663 16.8253L79.3951 31.627H75.5405L70.2694 16.8253H73.9891L77.3908 27.8205H77.5449L80.9563 16.8253H84.6663ZM92.0441 31.916C90.5601 31.916 89.2784 31.6077 88.1991 30.9909C87.1263 30.3678 86.3007 29.4877 85.7226 28.3505C85.1444 27.207 84.8553 25.8611 84.8553 24.3129C84.8553 22.7903 85.1444 21.454 85.7226 20.3041C86.3072 19.1477 87.1231 18.2483 88.1702 17.6059C89.2174 16.957 90.4477 16.6326 91.861 16.6326C92.7733 16.6326 93.6341 16.7803 94.4436 17.0758C95.2595 17.3649 95.979 17.8146 96.6022 18.425C97.2317 19.0353 97.7264 19.8126 98.0862 20.757C98.4459 21.6949 98.6258 22.8128 98.6258 24.1105V25.1801H86.4935V22.8288H95.282C95.2755 22.1607 95.131 21.5665 94.8483 21.0461C94.5656 20.5193 94.1705 20.1049 93.663 19.803C93.1619 19.501 92.5773 19.3501 91.9092 19.3501C91.1961 19.3501 90.5697 19.5235 90.0301 19.8704C89.4904 20.2109 89.0696 20.6606 88.7677 21.2195C88.4722 21.772 88.3212 22.3791 88.3148 23.0408V25.0934C88.3148 25.9543 88.4722 26.6931 88.787 27.3098C89.1018 27.9201 89.5418 28.3891 90.1072 28.7167C90.6725 29.0379 91.3342 29.1986 92.0923 29.1986C92.5998 29.1986 93.0591 29.1279 93.4703 28.9866C93.8815 28.8388 94.238 28.6236 94.5399 28.3409C94.8419 28.0582 95.07 27.7081 95.2241 27.2905L98.4813 27.6567C98.2757 28.5176 97.8838 29.2692 97.3056 29.9117C96.7339 30.5477 96.0015 31.0423 95.1085 31.3957C94.2155 31.7426 93.1941 31.916 92.0441 31.916ZM103.98 22.9541V31.627H100.492V16.8253H103.826V19.3404H103.999C104.34 18.5117 104.883 17.8532 105.628 17.3649C106.379 16.8767 107.308 16.6326 108.413 16.6326C109.434 16.6326 110.324 16.851 111.082 17.2879C111.847 17.7247 112.438 18.3575 112.855 19.1862C113.279 20.015 113.488 21.0204 113.482 22.2025V31.627H109.993V22.7421C109.993 21.7528 109.736 20.9786 109.222 20.4197C108.715 19.8608 108.011 19.5813 107.112 19.5813C106.502 19.5813 105.959 19.7162 105.483 19.9861C105.014 20.2495 104.645 20.6317 104.375 21.1328C104.112 21.6339 103.98 22.241 103.98 22.9541ZM123.333 16.8253V19.5235H114.824V16.8253H123.333ZM116.925 13.2791H120.414V27.1749C120.414 27.6439 120.484 28.0036 120.626 28.2542C120.773 28.4983 120.966 28.6653 121.204 28.7553C121.442 28.8452 121.705 28.8902 121.994 28.8902C122.212 28.8902 122.412 28.8741 122.591 28.842C122.778 28.8099 122.919 28.781 123.015 28.7553L123.603 31.4824C123.417 31.5466 123.15 31.6173 122.803 31.6944C122.463 31.7715 122.045 31.8165 121.551 31.8293C120.677 31.855 119.89 31.7233 119.19 31.4342C118.49 31.1387 117.934 30.6826 117.523 30.0658C117.118 29.4491 116.919 28.6782 116.925 27.7531V13.2791ZM142.212 18.5502H138.608C138.506 17.9592 138.316 17.4356 138.04 16.9795C137.764 16.5169 137.42 16.125 137.009 15.8038C136.598 15.4826 136.129 15.2417 135.602 15.0811C135.081 14.9141 134.519 14.8305 133.915 14.8305C132.843 14.8305 131.892 15.1004 131.063 15.64C130.234 16.1732 129.585 16.957 129.116 17.9913C128.647 19.0192 128.413 20.2752 128.413 21.7592C128.413 23.2689 128.647 24.5409 129.116 25.5752C129.592 26.6031 130.241 27.3805 131.063 27.9073C131.892 28.4276 132.839 28.6878 133.906 28.6878C134.497 28.6878 135.049 28.6107 135.563 28.4565C136.084 28.2959 136.549 28.0615 136.961 27.7531C137.378 27.4447 137.728 27.0657 138.011 26.616C138.3 26.1663 138.499 25.6523 138.608 25.0741L142.212 25.0934C142.078 26.0314 141.785 26.9115 141.336 27.7338C140.892 28.5561 140.311 29.2821 139.591 29.9117C138.872 30.5348 138.03 31.0231 137.067 31.3764C136.103 31.7233 135.033 31.8968 133.858 31.8968C132.123 31.8968 130.575 31.4953 129.213 30.6922C127.851 29.8892 126.778 28.7296 125.994 27.2134C125.21 25.6973 124.819 23.8792 124.819 21.7592C124.819 19.6327 125.214 17.8146 126.004 16.3049C126.794 14.7888 127.87 13.6292 129.232 12.8262C130.594 12.0231 132.136 11.6216 133.858 11.6216C134.956 11.6216 135.978 11.7758 136.922 12.0841C137.866 12.3925 138.708 12.8454 139.447 13.4429C140.186 14.0339 140.793 14.7599 141.268 15.6207C141.75 16.4752 142.065 17.4517 142.212 18.5502ZM144.247 31.627V16.8253H147.735V31.627H144.247ZM146.001 14.7245C145.448 14.7245 144.973 14.5415 144.574 14.1753C144.176 13.8027 143.977 13.3562 143.977 12.8358C143.977 12.309 144.176 11.8625 144.574 11.4963C144.973 11.1237 145.448 10.9374 146.001 10.9374C146.56 10.9374 147.035 11.1237 147.427 11.4963C147.825 11.8625 148.024 12.309 148.024 12.8358C148.024 13.3562 147.825 13.8027 147.427 14.1753C147.035 14.5415 146.56 14.7245 146.001 14.7245ZM150.237 31.627V16.8253H153.619V19.2922H153.774C154.043 18.4378 154.506 17.7793 155.161 17.3168C155.823 16.8478 156.578 16.6133 157.426 16.6133C157.618 16.6133 157.834 16.6229 158.071 16.6422C158.316 16.6551 158.518 16.6775 158.679 16.7097V19.9186C158.531 19.8672 158.296 19.8222 157.975 19.7837C157.66 19.7387 157.355 19.7162 157.06 19.7162C156.424 19.7162 155.852 19.8544 155.344 20.1306C154.843 20.4004 154.448 20.7763 154.159 21.2581C153.87 21.7399 153.725 22.2956 153.725 22.9252V31.627H150.237ZM165.758 31.916C164.28 31.916 163.011 31.5916 161.951 30.9428C160.898 30.2939 160.085 29.3977 159.513 28.2542C158.948 27.1042 158.665 25.7808 158.665 24.2839C158.665 22.7807 158.954 21.454 159.532 20.3041C160.111 19.1477 160.926 18.2483 161.98 17.6059C163.04 16.957 164.293 16.6326 165.738 16.6326C166.94 16.6326 168.003 16.8542 168.928 17.2975C169.86 17.7343 170.602 18.3543 171.154 19.1573C171.707 19.9539 172.021 20.8855 172.098 21.9519H168.764C168.629 21.2388 168.308 20.6446 167.801 20.1692C167.299 19.6873 166.628 19.4464 165.786 19.4464C165.073 19.4464 164.447 19.6392 163.907 20.0246C163.368 20.4037 162.947 20.9497 162.645 21.6628C162.349 22.3759 162.202 23.2304 162.202 24.2261C162.202 25.2347 162.349 26.102 162.645 26.828C162.941 27.5475 163.355 28.1032 163.888 28.4951C164.428 28.8806 165.061 29.0733 165.786 29.0733C166.3 29.0733 166.76 28.9769 167.165 28.7842C167.576 28.585 167.919 28.2992 168.196 27.9265C168.472 27.5539 168.661 27.101 168.764 26.5678H172.098C172.015 27.615 171.707 28.5433 171.173 29.3527C170.64 30.1558 169.914 30.7854 168.995 31.2415C168.077 31.6912 166.997 31.916 165.758 31.916ZM177.366 11.8914V31.627H173.877V11.8914H177.366ZM186.42 31.916C184.936 31.916 183.655 31.6077 182.575 30.9909C181.503 30.3678 180.677 29.4877 180.099 28.3505C179.521 27.207 179.232 25.8611 179.232 24.3129C179.232 22.7903 179.521 21.454 180.099 20.3041C180.683 19.1477 181.499 18.2483 182.546 17.6059C183.594 16.957 184.824 16.6326 186.237 16.6326C187.149 16.6326 188.01 16.7803 188.82 17.0758C189.636 17.3649 190.355 17.8146 190.978 18.425C191.608 19.0353 192.103 19.8126 192.462 20.757C192.822 21.6949 193.002 22.8128 193.002 24.1105V25.1801H180.87V22.8288H189.658C189.652 22.1607 189.507 21.5665 189.225 21.0461C188.942 20.5193 188.547 20.1049 188.039 19.803C187.538 19.501 186.954 19.3501 186.285 19.3501C185.572 19.3501 184.946 19.5235 184.406 19.8704C183.867 20.2109 183.446 20.6606 183.144 21.2195C182.848 21.772 182.697 22.3791 182.691 23.0408V25.0934C182.691 25.9543 182.848 26.6931 183.163 27.3098C183.478 27.9201 183.918 28.3891 184.483 28.7167C185.049 29.0379 185.71 29.1986 186.469 29.1986C186.976 29.1986 187.435 29.1279 187.847 28.9866C188.258 28.8388 188.614 28.6236 188.916 28.3409C189.218 28.0582 189.446 27.7081 189.6 27.2905L192.858 27.6567C192.652 28.5176 192.26 29.2692 191.682 29.9117C191.11 30.5477 190.378 31.0423 189.485 31.3957C188.592 31.7426 187.57 31.916 186.42 31.916Z" fill="white"/>
<defs>
<clipPath id="clip0_416_6777">
<rect width="44.2547" height="44.2547" fill="white"/>
</clipPath>
</defs>
</svg>
